<svg width="138" height="136" viewBox="0 0 138 136" fill="none" xmlns="http://www.w3.org/2000/svg">
<path d="M0.00393864 44.3964C0.00393864 41.1736 2.52461 38.5115 5.73453 38.3575C13.8834 37.9665 26.0771 38.6577 39.3776 44.2147C50.693 48.9463 58.708 55.4829 63.7021 60.3804C64.86 61.5139 65.5059 63.07 65.5059 64.6933V129.806C65.5059 134.632 60.1259 137.539 56.1322 134.842C49.3736 130.28 40.4489 125.477 29.3816 122.223C20.5198 119.616 12.4458 118.641 5.81723 118.396C2.57187 118.277 0 115.611 0 112.357V44.3964H0.00393864Z" fill="white"/>
<path d="M137.215 45.4391C137.215 41.608 134.198 38.4404 130.378 38.3141C122.252 38.0415 110.551 38.9025 97.8374 44.2187C86.7977 48.8318 78.9048 55.1669 73.8871 60.021C72.4968 61.3678 71.7091 63.2201 71.7091 65.1594V127.8C71.7091 133.455 77.9517 136.848 82.6937 133.779C89.2356 129.545 97.6248 125.225 107.833 122.223C116.266 119.743 123.982 118.739 130.417 118.439C134.218 118.261 137.211 115.133 137.211 111.314V45.4391H137.215Z" fill="white"/>
<path d="M15.5376 23.2504C15.5376 22.0062 16.6325 21.0544 17.8613 21.2203C26.7309 22.421 48.7395 26.9511 59.732 45.0915C59.7478 45.1152 59.7635 45.1429 59.7793 45.1666C60.9451 47.0979 58.5701 49.211 56.782 47.8404C56.1046 47.3191 55.3996 46.8057 54.6749 46.2962C40.9766 36.7066 26.3883 34.8345 17.5344 34.6094C16.4237 34.5817 15.5336 33.6773 15.5336 32.5595V23.2504H15.5376Z" fill="#FFD700"/>
<path d="M121.496 23.2504C121.496 22.0062 120.401 21.0544 119.173 21.2203C110.303 22.421 88.2944 26.9511 77.3019 45.0915C77.2861 45.1152 77.2704 45.1429 77.2546 45.1666C76.0888 47.0979 78.4638 49.211 80.2519 47.8404C80.9293 47.3191 81.6343 46.8057 82.359 46.2962C96.0533 36.7026 110.642 34.8345 119.496 34.6094C120.606 34.5817 121.496 33.6773 121.496 32.5595V23.2504Z" fill="#FFD700"/>
<path d="M38.2945 12.9183C38.2945 11.3503 39.9644 10.351 41.335 11.1015C47.172 14.3006 56.7978 21.011 61.654 32.9861C61.6697 33.0216 61.6855 33.0611 61.6973 33.0967C62.552 35.2255 59.8029 36.9396 58.259 35.2452C56.9947 33.8589 55.5611 32.445 53.9463 31.0547C48.6804 26.5127 43.4264 23.8902 39.5942 22.3736C38.8065 22.0615 38.2905 21.3032 38.2905 20.4541V12.9183H38.2945Z" fill="#FFD700"/>
<path d="M99.2002 12.9183C99.2002 11.3503 97.5302 10.351 96.1596 11.1015C90.3227 14.3006 80.6969 21.011 75.8407 32.9861C75.8249 33.0216 75.8092 33.0611 75.7973 33.0967C74.9427 35.2255 77.6918 36.9396 79.2357 35.2452C80.5 33.8589 81.9336 32.445 83.5484 31.0547C88.8142 26.5127 94.0683 23.8902 97.9005 22.3736C98.6882 22.0615 99.2041 21.3032 99.2041 20.4541V12.9183H99.2002Z" fill="#FFD700"/>
<path d="M53.6194 11.3187C51.276 9.19776 51.7013 5.39431 54.4662 3.86583C58.1448 1.83179 63.4658 -0.166694 70.051 0.0110368C76.2542 0.176919 81.2286 2.21885 84.7339 4.28843C87.5382 5.94726 87.7942 9.90473 85.2184 11.9072C83.7257 13.0683 82.1818 14.4073 80.6457 15.9476C77.3925 19.2139 74.9545 22.6066 73.127 25.7426C71.3508 28.7916 66.9475 28.7442 65.1909 25.6833C63.8911 23.4202 62.3197 21.0268 60.4173 18.6017C58.1409 15.7106 55.8092 13.3014 53.6194 11.3187Z" fill="#FFD700"/>
<path d="M15.5376 62.9831C15.5376 58.9783 19.0547 55.866 23.0129 56.411C25.6557 56.7744 28.6332 57.434 31.792 58.5873C37.6131 60.7161 41.9416 63.7533 44.8482 66.2455C46.3134 67.5015 47.1444 69.338 47.1444 71.2694V101.397C47.1444 106.207 42.1818 109.45 37.8219 107.444C35.8053 106.515 33.5525 105.646 31.0673 104.932C27.6092 103.936 24.3993 103.439 21.5872 103.221C18.1606 102.957 15.5336 100.062 15.5336 96.6138V62.9831H15.5376Z" fill="#0142AF"/>
<path d="M119.574 61.3243C119.574 57.8013 116.514 55.0642 113.021 55.4671C110.157 55.7949 106.849 56.4703 103.316 57.7618C97.3254 59.9538 92.9103 63.1056 90.0076 65.6412C88.7158 66.7668 87.9635 68.3941 87.9635 70.1082V101.732C87.9635 106.101 92.5165 108.921 96.4393 107.021C98.6685 105.939 101.205 104.924 104.041 104.11C107.735 103.048 111.154 102.55 114.096 102.36C117.18 102.159 119.574 99.5799 119.574 96.4795V61.3243Z" fill="#0142AF"/>
</svg>
